<svg width="401" height="368" viewBox="0 0 401 368" fill="none" xmlns="http://www.w3.org/2000/svg">
<rect opacity="0.4" width="316.543" height="330.346" rx="17.9536" fill="#FFC963"/>
<g opacity="0.3">
<rect x="37.8473" y="39.4979" width="139.692" height="35.9072" rx="7.18144" fill="#DA841F"/>
<rect x="37.8474" y="111.312" width="101.767" height="35.9072" rx="7.18144" fill="#DA841F"/>
<rect x="38.0004" y="183" width="66" height="36" rx="7.18144" fill="#DA841F"/>
<rect x="38.0004" y="255" width="150" height="36" rx="7.18144" fill="#DA841F"/>
</g>
<g clip-path="url(#clip0)">
<path d="M109.966 286.229C112.215 286.229 114.464 285.372 116.18 283.655L144.875 254.96C148.308 251.527 148.308 245.963 144.875 242.53C141.443 239.098 135.878 239.098 132.446 242.53L103.751 271.225C100.319 274.658 100.319 280.222 103.751 283.655C105.467 285.371 107.716 286.229 109.966 286.229V286.229Z" fill="#DA841F"/>
<path d="M171.173 268.828C167.741 265.395 162.176 265.395 158.743 268.828L103.575 323.997C100.143 327.429 100.143 332.994 103.575 336.426C105.291 338.142 107.54 339 109.789 339C112.039 339 114.288 338.142 116.004 336.425L171.172 281.257C174.605 277.825 174.605 272.26 171.173 268.828V268.828Z" fill="#DA841F"/>
<path d="M185.041 295.125L156.345 323.82C152.913 327.252 152.913 332.817 156.345 336.25C158.062 337.966 160.311 338.824 162.56 338.824C164.809 338.824 167.059 337.966 168.774 336.25L197.469 307.554C200.902 304.122 200.902 298.557 197.469 295.125C194.038 291.693 188.472 291.693 185.041 295.125Z" fill="#DA841F"/>
<ellipse opacity="0.6" rx="8.87505" ry="8.75237" transform="matrix(0.880388 0.474254 -0.55219 0.833718 284.547 137.145)" fill="#DA841F"/>
<ellipse opacity="0.6" rx="8.87505" ry="8.75236" transform="matrix(0.880388 0.474254 -0.55219 0.833718 299.716 154.473)" fill="#DA841F"/>
<rect x="191.001" y="132.935" width="85.9561" height="130.415" fill="#FFFCF9"/>
<rect x="208.192" y="250.582" width="54.6074" height="24.6238" fill="#FFFCF9"/>
<rect x="166.731" y="125.639" width="86.9674" height="113.999" fill="#FFFCF9"/>
<rect x="208.192" y="106.487" width="69.7761" height="31.0078" fill="#FFFCF9"/>
<rect x="227.406" y="87.3356" width="69.7761" height="19.1519" fill="#FFFCF9"/>
<rect x="253.698" y="73.6558" width="69.7761" height="19.1519" fill="#FFFCF9"/>
<rect x="270.89" y="62.7118" width="69.7761" height="19.1519" fill="#FFFCF9"/>
<rect x="135.382" y="133.847" width="64.7199" height="60.1915" fill="#FFFCF9"/>
<rect x="119.202" y="155.735" width="43.4837" height="42.8637" fill="#FFFCF9"/>
<rect x="276.957" y="165.767" width="40.4499" height="89.3753" fill="#FFFCF9"/>
<rect x="303.25" y="165.767" width="37.4162" height="60.1916" fill="#FFFCF9"/>
<rect x="325.497" y="160.295" width="25.2812" height="41.0397" fill="#FFFCF9"/>
<rect x="346.733" y="54.5039" width="37.4162" height="107.615" fill="#FFFCF9"/>
<rect x="312.351" y="50.8559" width="37.4162" height="55.6316" fill="#FFFCF9"/>
<rect x="340.666" y="83.6877" width="24.27" height="107.615" fill="#FFFCF9"/>
<rect x="242.575" y="270.646" width="39.4387" height="51.9836" fill="#FFFCF9"/>
<rect x="265.833" y="250.582" width="39.4387" height="51.9836" fill="#FFFCF9"/>
<path d="M306.501 177.424C317.752 177.422 329.008 173.139 337.573 164.573C345.874 156.274 350.444 145.238 350.444 133.501C350.444 121.763 345.873 110.728 337.573 102.428C320.439 85.2931 292.561 85.2943 275.428 102.428C267.127 110.728 262.556 121.763 262.556 133.501C262.556 145.238 267.128 156.274 275.428 164.573C283.995 173.141 295.245 177.425 306.501 177.424ZM287.856 114.857C292.996 109.716 299.748 107.146 306.499 107.146C313.252 107.146 320.003 109.716 325.143 114.857C330.123 119.836 332.865 126.458 332.865 133.5C332.865 140.542 330.123 147.164 325.143 152.144C314.864 162.424 298.136 162.424 287.855 152.144C282.876 147.164 280.133 140.543 280.133 133.501C280.133 126.458 282.876 119.836 287.856 114.857Z" fill="#DA841F"/>
<path d="M400.648 61.3958C399.999 49.479 390.521 40.0026 378.604 39.3522C354.558 38.0385 307.505 39.3165 262.512 62.5881C239.576 74.4522 215.318 94.5668 195.959 117.775C195.721 118.061 195.489 118.348 195.252 118.635L151.318 122.029C144.087 122.588 137.646 126.378 133.646 132.427L103.673 177.762C100.64 182.35 100.157 188.092 102.382 193.121C104.608 198.151 109.18 201.656 114.615 202.498L151.629 208.231C151.498 208.95 151.367 209.669 151.247 210.389C150.015 217.76 152.457 225.338 157.781 230.661L209.339 282.22C213.752 286.634 219.717 289.067 225.828 289.067C227.087 289.067 228.352 288.963 229.612 288.753C230.332 288.633 231.05 288.502 231.77 288.371L237.503 325.386C238.345 330.82 241.85 335.394 246.878 337.618C248.971 338.544 251.185 339.001 253.389 339.001C256.485 339.001 259.559 338.099 262.238 336.328L307.573 306.355C313.623 302.354 317.412 295.913 317.97 288.682L321.364 244.749C321.65 244.512 321.939 244.28 322.225 244.042C345.433 224.683 365.548 200.425 377.412 177.488C400.685 132.493 401.96 85.4397 400.648 61.3958ZM297.878 291.691L254.513 320.363L248.925 284.289C267.253 278.9 285.384 270.27 302.657 258.707L300.446 287.327C300.308 289.113 299.372 290.704 297.878 291.691ZM221.768 269.79L170.21 218.232C168.894 216.916 168.286 215.067 168.584 213.287C170.117 204.121 172.499 195.396 175.447 187.176L252.807 264.536C242.936 268.072 234.093 270.182 226.713 271.416C224.93 271.712 223.083 271.106 221.768 269.79ZM152.673 139.555L181.292 137.344C169.729 154.617 161.098 172.747 155.709 191.075L119.637 185.489L148.309 142.122C149.297 140.628 150.888 139.692 152.673 139.555ZM310.966 230.542C296.767 242.386 282.984 250.952 270.28 257.151L182.846 169.717C190.966 153.132 200.876 139.323 209.457 129.035C227.373 107.557 249.654 89.0291 270.589 78.201C311.882 56.8418 355.389 55.6917 377.647 56.9034C380.593 57.0639 382.937 59.4071 383.097 62.3538C384.311 84.6124 383.158 128.118 361.799 169.412C350.971 190.347 332.443 212.627 310.966 230.542Z" fill="#DA841F"/>
</g>
<defs>
<clipPath id="clip0">
<rect width="300" height="300" fill="white" transform="translate(101 39)"/>
</clipPath>
</defs>
</svg>
